<?xml version="1.0" standalone="no"?>
<!DOCTYPE svg PUBLIC "-//W3C//DTD SVG 20010904//EN"
 "http://www.w3.org/TR/2001/REC-SVG-20010904/DTD/svg10.dtd">
<svg version="1.0" xmlns="http://www.w3.org/2000/svg"
 width="125.000000pt" height="125.000000pt" viewBox="0 0 125.000000 125.000000"
 preserveAspectRatio="xMidYMid meet">

<g transform="translate(0.000000,125.000000) scale(0.100000,-0.100000)"
fill="#000000" stroke="none">
<path d="M70 1232 c-71 -35 -70 -25 -70 -607 0 -475 2 -523 18 -555 35 -71 25
-70 607 -70 582 0 572 -1 607 70 16 32 18 80 18 555 0 582 1 572 -70 607 -32
16 -80 18 -555 18 -475 0 -523 -2 -555 -18z m712 -194 c23 -14 51 -41 66 -67
22 -38 27 -60 31 -153 6 -115 12 -128 59 -128 12 0 31 -9 42 -20 18 -18 20
-33 20 -145 0 -168 -20 -217 -105 -256 -35 -16 -68 -19 -270 -19 -202 0 -235
3 -270 19 -48 22 -69 44 -90 94 -12 29 -15 85 -15 297 0 236 2 264 19 298 22
42 43 64 86 86 24 13 66 16 209 16 166 0 181 -2 218 -22z"/>
<path d="M456 854 c-24 -23 -20 -70 6 -88 17 -12 48 -16 124 -16 85 0 103 3
117 18 20 22 22 73 5 90 -19 19 -232 16 -252 -4z"/>
<path d="M457 542 c-22 -24 -21 -65 1 -85 16 -14 43 -17 169 -17 133 0 152 2
166 18 22 24 21 65 -1 85 -16 14 -43 17 -169 17 -133 0 -152 -2 -166 -18z"/>
</g>
</svg>
